Coordinates
version=1
nRows=19
nColumns=36
inDegrees=yes

Units are S.I. units (second, meters, Newtons, ...)
If the header above contains a line with 'inDegrees', this indicates whether rotational values are in degrees (yes) or radians (no).

endheader
time	pelvis_tilt	pelvis_list	pelvis_rotation	pelvis_tx	pelvis_ty	pelvis_tz	hip_flexion_r	hip_adduction_r	hip_rotation_r	knee_angle_r	knee_angle_r_beta	ankle_angle_r	subtalar_angle_r	mtp_angle_r	hip_flexion_l	hip_adduction_l	hip_rotation_l	knee_angle_l	knee_angle_l_beta	ankle_angle_l	subtalar_angle_l	mtp_angle_l	lumbar_extension	lumbar_bending	lumbar_rotation	arm_flex_r	arm_add_r	arm_rot_r	elbow_flex_r	pro_sup_r	arm_flex_l	arm_add_l	arm_rot_l	elbow_flex_l	pro_sup_l
      4.30000000	    -34.11663737	      1.29077623	      0.68605938	      0.84656405	      0.76927601	     -0.08094201	     88.45774131	    -16.74664505	      1.04588280	     82.08904645	      1.43272414	     34.08397591	     -1.99586428	     -7.49999987	     88.84083166	    -10.08681311	      0.43133336	     81.10257758	      1.41550701	     28.90985574	     -8.32177054	     -7.49999987	    -26.62398962	      0.31489512	      2.38202148	     87.96372646	    -29.43693674	     11.05362793	    118.69921891	     88.44151898	     79.35584688	    -23.31398336	     12.50899389	    128.26055855	     76.08560665
      4.31666670	    -34.79045379	      1.21094805	      0.68964382	      0.83361008	      0.76636702	     -0.08106367	     89.67027385	    -16.92181579	      1.00475678	     82.64312971	      1.44239472	     33.59243755	     -1.93331283	     -7.49999987	     90.21741823	     -9.97879126	      0.73965715	     81.79996213	      1.42767867	     28.92623025	     -8.06029739	     -7.49999987	    -27.87540742	      0.57772300	      2.82092610	     90.72228977	    -29.14162171	     12.34826239	    118.42164225	     88.97663471	     82.89978813	    -23.16634115	     15.12781580	    126.94645786	     77.23556021
      4.33333330	    -35.45319929	      1.23668091	      0.64380381	      0.83305559	      0.75411499	     -0.07456295	     91.16770102	    -17.04366879	      1.04309180	     83.52924959	      1.45786043	     33.47201800	     -1.65368526	     -7.49999987	     91.70307868	    -10.06264840	      0.88770896	     82.62065160	      1.44200240	     28.92607528	     -8.03018358	     -7.49999987	    -28.23015031	      0.47912575	      3.16957794	     92.07349628	    -28.15732629	     12.43468321	    119.09022931	     88.37903294	     85.03180274	    -22.62122229	     14.74016916	    126.66724785	     77.11494303
      4.35000000	    -35.79907622	      0.99957513	      0.51896262	      0.83938841	      0.74700599	     -0.07186329	     92.13776995	    -16.97640445	      0.82261383	     84.45559865	      1.47402827	     33.44854173	     -1.74094826	     -7.49999987	     92.86658010	    -10.26573191	      1.40216960	     83.55142143	      1.45824740	     29.19022311	     -7.78201386	     -7.49999987	    -28.45015235	      0.66519031	      3.59010681	     91.71896040	    -27.60657257	     12.46622444	    120.49049494	     91.13928002	     84.48098263	    -22.35862881	     12.95705419	    127.54153999	     86.05375562
      4.36666670	    -35.86253525	      0.99108022	      0.34659491	      0.85258583	      0.74653161	     -0.07694025	     92.45883361	    -16.96123262	      0.79325279	     85.09212626	      1.48513777	     33.54115943	     -1.86193616	     -7.49999987	     93.16227435	    -10.35420023	      1.71993241	     84.19346382	      1.46945315	     29.66191050	     -7.49872953	     -7.49999987	    -28.78566877	      0.74830045	      4.04490623	     90.03256697	    -27.97684734	     12.11743230	    122.49896578	     90.49187822	     82.31894447	    -21.47083364	     12.13872522	    129.12577118	     85.93096295
      4.38333330	    -35.59957505	      0.98243932	      0.25779768	      0.86433351	      0.74888228	     -0.07158887	     91.90286996	    -16.91569881	      0.82951763	     85.36056739	      1.48982295	     33.80103054	     -1.88901132	     -7.49999987	     92.57289582	    -10.36873281	      1.98118910	     84.48034482	      1.47446017	     30.46566521	     -6.84586038	     -7.49999987	    -29.28775669	      0.65617292	      4.23384990	     87.15666857	    -27.64382053	     11.50804469	    125.06010942	     90.65286271	     79.30779130	    -21.29554691	     11.14458393	    130.83358490	     86.57581052
      4.40000000	    -35.43911200	      1.00027206	      0.21360942	      0.85682733	      0.74531147	     -0.07445621	     91.58010985	    -16.89191551	      0.98034052	     85.62060737	      1.49436151	     33.85259259	     -2.12422470	     -7.49999987	     92.21732287	    -10.44637829	      2.04181252	     84.83657184	      1.48067750	     31.02735741	     -6.16680718	     -7.49999987	    -29.84744117	      0.74004527	      4.32480004	     86.40652295	    -27.71337360	     10.14386128	    125.38285607	     90.79685553	     79.06338424	    -20.53441720	     10.88627319	    130.85771729	     87.22571935
      4.41666670	    -35.32319223	      1.05343109	      0.17673069	      0.86892504	      0.74796722	     -0.07493130	     90.98602499	    -16.95559875	      0.98393888	     85.54699545	      1.49307674	     34.08857840	     -2.19488666	     -7.49999987	     91.53962626	    -10.40655450	      2.07051375	     84.79412205	      1.47993662	     31.56488122	     -5.67860839	     -7.49999987	    -30.24475624	      0.86584377	      4.43919670	     84.40981191	    -28.22876109	      8.94047185	    127.64900620	     90.83796077	     77.22823146	    -20.08612843	     10.26256128	    131.91928742	     87.80316671
      4.43333330	    -35.06493582	      1.05264870	      0.09329965	      0.87380384	      0.74691061	     -0.07189724	     90.12218948	    -16.89501866	      0.97413024	     85.43155099	      1.49106185	     34.37439279	     -2.21016180	     -7.49999987	     90.66612300	    -10.50229602	      2.10281681	     84.75352787	      1.47922811	     32.22224096	     -5.03726063	     -7.49999987	    -30.61451428	      0.84648088	      4.70480390	     82.42005690	    -28.72283714	      7.48650104	    128.93555528	     90.84289413	     75.69175377	    -19.32012491	      9.74018641	    132.97346694	     88.42841995
      4.45000000	    -34.91375205	      1.10062183	     -0.02360252	      0.87265038	      0.74750185	     -0.07241741	     89.45129586	    -16.80798553	      0.96672435	     85.26138834	      1.48809195	     34.56643899	     -2.34728857	     -7.49999987	     89.95542617	    -10.66143916	      2.05126440	     84.61020157	      1.47672660	     32.73774745	     -4.53556642	     -7.49999987	    -30.88610239	      0.60255760	      5.40735813	     81.08806217	    -30.29122894	      5.25572247	    129.42000710	     91.47875854	     75.51541863	    -18.12687446	     10.37021419	    132.35361383	     92.01240179
      4.46666670	    -35.10019595	      1.09972608	     -0.12964980	      0.85907763	      0.74511748	     -0.07205739	     89.51388733	    -16.72200993	      0.87679670	     85.28917984	      1.48857700	     34.66676481	     -2.33290171	     -7.49999987	     90.12027437	    -10.95348203	      1.97287823	     84.74380315	      1.47905839	     32.96517738	     -4.14450123	     -7.49999987	    -30.89713021	      0.72192915	      5.28299032	     81.61857806	    -30.83616697	      4.95166754	    127.05807187	     91.51859620	     76.88049295	    -18.37442912	     10.32734174	    130.65209970	     92.08897786
      4.48333330	    -35.15023915	      1.05940261	     -0.23858591	      0.86503374	      0.74639884	     -0.06960283	     89.32008331	    -16.66780378	      0.59767550	     85.20719445	      1.48714609	     34.80942155	     -2.26993496	     -7.49999987	     90.04461473	    -11.20087167	      1.98246974	     84.72206017	      1.47867890	     33.08678313	     -4.02181571	     -7.49999987	    -30.87178174	      0.81322325	      5.15114850	     81.29411140	    -31.33729282	      4.61530628	    127.14505429	     91.51004511	     77.01037726	    -18.89378726	     10.07198071	    130.66673435	     92.07715752
      4.50000000	    -35.20722595	      0.96976236	     -0.37977054	      0.85833224	      0.74771769	     -0.07177171	     89.26752523	    -16.55330815	      0.30906067	     85.10765731	      1.48540884	     34.72360287	     -2.24186385	     -7.49999987	     90.15140914	    -11.54054554	      1.97289857	     84.74463756	      1.47907295	     33.08594611	     -3.73566688	     -7.49999987	    -30.91913754	      0.92868941	      5.18261379	     82.32064723	    -31.76002558	      3.91035252	    126.17787980	     91.62459936	     78.21151563	    -18.61442151	     10.60167003	    129.89279702	     92.10472984
      4.51666670	    -35.11566624	      0.95842466	     -0.50674478	      0.86443906	      0.74904485	     -0.06925814	     88.91923951	    -16.47437349	      0.04000770	     84.87389728	      1.48132896	     34.67220124	     -2.19712019	     -7.49999987	     89.86672707	    -11.74075778	      1.94154116	     84.57706131	      1.47614819	     33.00523586	     -3.68289534	     -7.49999987	    -30.83412257	      0.87857955	      5.05319720	     82.00533712	    -31.98795731	      3.73037042	    126.66084751	     91.65736007	     77.95616269	    -18.94854007	     10.45769653	    130.13036062	     92.08119700
      4.53333330	    -35.56031312	      0.99678868	     -0.52355174	      0.84527055	      0.74478927	     -0.07187036	     89.65677150	    -16.49495671	     -0.08010276	     84.92996242	      1.48230748	     34.39874279	     -2.27530398	     -7.49999987	     90.65378594	    -11.98720559	      1.74629582	     84.70120742	      1.47831495	     32.63947713	     -3.70981948	     -7.49999987	    -30.35691357	      0.93731665	      5.03702700	     84.65612585	    -32.21432126	      3.91733703	    125.35954234	     89.26911317	     80.74118969	    -18.48640744	     11.03117587	    128.92286781	     89.53445881
      4.55000000	    -35.73144675	      0.98388331	     -0.56306527	      0.84580564	      0.74496759	     -0.07223116	     90.13534571	    -16.55108605	     -0.37015973	     85.00211358	      1.48356675	     34.08922363	     -2.31629878	     -7.49999987	     91.20154788	    -12.15949252	      1.68594117	     84.81258925	      1.48025893	     32.22183633	     -4.02455418	     -7.49999987	    -30.14395098	      1.06111738	      5.15371730	     86.23628347	    -32.82226203	      5.09694246	    125.40311148	     88.99857331	     82.34237545	    -18.52117635	     11.63497506	    128.53338615	     88.84633525
      4.56666670	    -35.69989947	      0.96447101	     -0.57661118	      0.85240970	      0.75125538	     -0.06868025	     89.99582762	    -16.59138110	     -0.66020775	     84.66711838	      1.47771998	     33.81489701	     -2.25319728	     -7.49999987	     91.07702574	    -12.22584118	      1.65831232	     84.51342221	      1.47503748	     32.01006433	     -4.07642476	     -7.49999987	    -30.15773437	      1.08820553	      5.09566873	     85.98303721	    -32.76717706	      5.26501477	    125.41378599	     89.04848768	     82.27237612	    -18.57213517	     11.62754830	    128.22550096	     88.83299999
      4.58333330	    -35.80842872	      0.88986134	     -0.58933833	      0.84619799	      0.74779344	     -0.06597968	     90.05657905	    -16.56342662	     -0.88998991	     84.47838877	      1.47442603	     33.56810220	     -2.22269799	     -7.49999987	     91.13538600	    -12.33179909	      1.74858719	     84.32225005	      1.47170090	     31.77585867	     -4.12018461	     -7.49999987	    -29.89201799	      1.13135183	      5.09673015	     86.12683058	    -32.74546579	      5.36838526	    125.11566592	     89.20749449	     82.98336187	    -19.00349713	     11.64227005	    127.64542957	     88.86624088
      4.60000000	    -36.03698228	      0.91223786	     -0.51769686	      0.82707337	      0.74649472	     -0.06898512	     90.66283098	    -16.60269028	     -0.96666239	     84.44093470	      1.47377233	     33.07889834	     -2.33236846	     -7.49999987	     91.68448952	    -12.39066850	      1.68175134	     84.26545495	      1.47070963	     31.26717060	     -4.38044538	     -7.49999987	    -29.77438029	      1.14584040	      5.07627129	     88.32688066	    -32.80031305	      6.17585084	    122.69716091	     89.65990582	     85.41677325	    -19.13321534	     12.65622623	    125.83874057	     88.89710171
